<?xml version="1.0" encoding="utf-8"?>
<!-- Generator: Adobe Illustrator 21.1.0, SVG Export Plug-In . SVG Version: 6.00 Build 0)  -->
<svg version="1.1" id="Layer_1" xmlns="http://www.w3.org/2000/svg" xmlns:xlink="http://www.w3.org/1999/xlink" x="0px" y="0px"
	 viewBox="0 0 64 64.3" style="enable-background:new 0 0 64 64.3;" xml:space="preserve">
<style type="text/css">
	.st0{fill:#00B5A4;}
</style>
<g>
	<path class="st0" d="M11,38.7h4v2h-4V38.7z M11,42.7h4v3h-4V42.7z"/>
	<path class="st0" d="M23,32.7h4v5h-4V32.7z M23,39.7h4v6h-4V39.7z"/>
	<path class="st0" d="M35,25.7h4v8h-4V25.7z M35,35.7h4v10h-4V35.7z"/>
	<path class="st0" d="M47,19.7h4v10h-4V19.7z M47,31.7h4v14h-4V31.7z"/>
	<polygon class="st0" points="5,53.7 59,53.7 59,13.7 57,13.7 57,51.7 5,51.7 	"/>
	<path class="st0" d="M26.9,22.2c-3.6,2.4-7.4,4.3-11.5,5.6l-5.8,1.9C9.2,29.9,8.9,30.5,9,31c0.2,0.5,0.7,0.8,1.3,0.6l5.8-1.9
		c4.2-1.4,8.2-3.4,12-5.8c4.1-2.8,7.8-6.1,11-10v2.8c0,0.6,0.4,1,1,1s1-0.4,1-1v-5c0-0.6-0.4-1-1-1h-5c-0.6,0-1,0.4-1,1
		c0,0.6,0.4,1,1,1h2.4C34.4,16.3,30.9,19.5,26.9,22.2z"/>
</g>
</svg>
