<?xml version="1.0" encoding="utf-8"?>
<!-- Generator: Adobe Illustrator 21.1.0, SVG Export Plug-In . SVG Version: 6.00 Build 0)  -->
<svg version="1.1" id="Layer_1" xmlns="http://www.w3.org/2000/svg" xmlns:xlink="http://www.w3.org/1999/xlink" x="0px" y="0px"
	 viewBox="0 0 64 64.3" style="enable-background:new 0 0 64 64.3;" xml:space="preserve">
<style type="text/css">
	.st0{fill:#00B5A4;}
</style>
<path class="st0" d="M45.8,44.8l-1.1,2.6c-0.3,0.7-0.8,1.2-1.5,1.5c-0.7,0.3-1.4,0.3-2.1,0l-1.7-0.7c-1,1.3-2.2,2.5-3.5,3.5l0.7,1.7
	c0.3,0.7,0.3,1.4,0,2.1c-0.3,0.7-0.8,1.2-1.5,1.5L32.5,58c-0.4,0.1-0.7,0.2-1,0.2c-0.4,0-0.7-0.1-1-0.2c-0.7-0.3-1.2-0.8-1.5-1.5
	l-0.7-1.6c-1.6,0.2-3.3,0.2-5,0l-0.7,1.7c-0.6,1.4-2.2,2-3.5,1.5L16.4,57c-0.7-0.3-1.2-0.8-1.5-1.5c-0.3-0.7-0.3-1.4,0-2.1l0.7-1.7
	c-1.3-1-2.5-2.2-3.5-3.5l-1.6,0.7c-1.4,0.6-3-0.1-3.5-1.5L6,44.8c-0.6-1.4,0.1-3,1.5-3.5l1.7-0.7c-0.2-1.6-0.2-3.3,0-5l-1.7-0.7
	c-1.4-0.6-2-2.2-1.5-3.5L7,28.7c0.3-0.7,0.8-1.2,1.5-1.5c0.7-0.3,1.4-0.3,2.1,0l1.7,0.7c1-1.3,2.2-2.5,3.5-3.5l-0.7-1.7
	c-0.3-0.7-0.3-1.4,0-2.1c0.3-0.7,0.8-1.2,1.5-1.5l2.6-1.1c0.7-0.3,1.4-0.3,2.1,0s1.2,0.8,1.5,1.5l1,2.4c0.2,0.5-0.1,1.1-0.5,1.3
	c-0.5,0.2-1.1-0.1-1.3-0.5l-1-2.4c-0.1-0.2-0.2-0.3-0.4-0.4c-0.2-0.1-0.4-0.1-0.5,0l-2.6,1.1c-0.2,0.1-0.3,0.2-0.4,0.4
	S17,21.8,17,22l1,2.4c0.2,0.5,0,1-0.4,1.3c-1.6,1.1-3,2.5-4.1,4.1c-0.3,0.4-0.8,0.5-1.3,0.4l-2.4-1c-0.4-0.1-0.7,0-0.9,0.4l-1.2,2.7
	c-0.1,0.4,0,0.7,0.4,0.9l2.4,1c0.5,0.2,0.7,0.7,0.6,1.1c-0.4,1.9-0.4,3.9,0,5.8c0.1,0.5-0.2,1-0.6,1.1l-2.4,1
	c-0.4,0.1-0.5,0.5-0.4,0.9l1.1,2.6C9,47,9.4,47.1,9.8,47l2.4-1c0.5-0.2,1,0,1.3,0.4c1.1,1.6,2.5,3,4.1,4.1c0.4,0.3,0.5,0.8,0.4,1.3
	l-1,2.4c-0.1,0.2-0.1,0.4,0,0.5c0.1,0.2,0.2,0.3,0.4,0.4l2.6,1.1c0.4,0.1,0.7,0,0.9-0.4l1-2.4c0.2-0.5,0.7-0.7,1.1-0.6
	c1.9,0.4,3.9,0.4,5.8,0c0.5-0.1,1,0.2,1.1,0.6l1,2.4c0.1,0.2,0.2,0.3,0.4,0.4c0.2,0.1,0.4,0.1,0.5,0l2.6-1.1
	c0.2-0.1,0.3-0.2,0.4-0.4c0.1-0.2,0.1-0.4,0-0.5l-1-2.4c-0.2-0.5,0-1,0.4-1.3c1.6-1.1,3-2.5,4.1-4.1c0.3-0.4,0.8-0.5,1.3-0.4l2.4,1
	c0.4,0.1,0.7,0,0.9-0.4l1.1-2.6c0.1-0.4,0-0.7-0.4-0.9l-2.4-1c-0.5-0.2-0.8-0.8-0.5-1.3c0.2-0.5,0.8-0.8,1.3-0.5l2.4,1
	C45.7,41.8,46.3,43.4,45.8,44.8z M17.2,38.1c0.1,4.7,3.9,8.6,8.6,8.6h0.1c4.7-0.1,8.6-3.9,8.6-8.7c0-0.5-0.5-1-1-1c-0.5,0-1,0.5-1,1
	c0,3.6-2.9,6.6-6.5,6.6h-0.1c-3.6,0-6.5-2.9-6.6-6.5c0-3.6,2.9-6.6,6.5-6.6c0.5,0,1-0.5,1-1c0-0.5-0.5-1-1-1l0,0
	C21,29.5,17.2,33.4,17.2,38.1z M49,21.6c0,3.5-2.8,6.3-6.3,6.3c-3.5,0-6.3-2.8-6.3-6.3s2.8-6.3,6.3-6.3C46.2,15.3,49,18.1,49,21.6z
	 M47,21.6c0-2.3-1.9-4.2-4.2-4.2c-2.3,0-4.2,1.9-4.2,4.2s1.9,4.2,4.2,4.2C45.1,25.8,47,23.9,47,21.6z M58.3,20.6v2.1
	c0,1.3-1,2.3-2.3,2.3h-1.1c-0.3,1.1-0.7,2-1.3,3l0.8,0.8c0.4,0.4,0.7,1,0.7,1.6c0,0.6-0.2,1.1-0.7,1.6L53,33.3
	c-0.4,0.4-1,0.7-1.6,0.7c-0.6,0-1.2-0.2-1.6-0.7L49,32.5c-1,0.5-2,1-3,1.3v1.1c0,1.3-1,2.3-2.3,2.3h-2.1c-1.3,0-2.3-1-2.3-2.3v-1.1
	c-1.1-0.3-2-0.7-3-1.3l-0.7,0.8c-0.4,0.4-1,0.7-1.6,0.7c-0.6,0-1.1-0.2-1.6-0.7L31,31.9c-0.9-0.9-0.9-2.3,0-3.2l0.8-0.8
	c-0.5-1-1-2-1.3-3h-1.1c-1.3,0-2.3-1-2.3-2.3v-2.1c0-1.3,1-2.3,2.3-2.3h1.1c0.3-1.1,0.7-2,1.3-3L31,14.5c-0.9-0.9-0.9-2.3,0-3.2
	l1.4-1.4c0.4-0.4,1-0.7,1.6-0.7c0.6,0,1.1,0.2,1.6,0.7l0.8,0.8c1-0.5,2-1,3-1.3V8.4c0-1.3,1-2.3,2.3-2.3h2.1c1.3,0,2.3,1,2.3,2.3v1
	c1.1,0.3,2,0.7,3,1.3l0.8-0.8c0.4-0.4,1-0.7,1.6-0.7s1.1,0.2,1.6,0.7l1.4,1.4c0.4,0.4,0.7,1,0.7,1.6c0,0.6-0.2,1.1-0.7,1.6l-0.8,0.8
	c0.5,1,1,2,1.3,3h1.1C57.3,18.3,58.3,19.3,58.3,20.6z M56.2,20.6c0-0.1-0.1-0.2-0.2-0.2h-1.9c-0.5,0-0.9-0.4-1-0.8
	c-0.3-1.4-0.8-2.6-1.6-3.8c-0.3-0.4-0.2-1,0.1-1.3L53,13c0.1-0.1,0.1-0.1,0.1-0.2c0-0.1,0-0.1-0.1-0.2l-1.4-1.4
	c-0.1-0.1-0.1-0.1-0.2-0.1s-0.1,0-0.2,0.1l-1.3,1.4c-0.4,0.4-0.9,0.4-1.3,0.1c-1.1-0.8-2.5-1.3-3.8-1.6c-0.5-0.1-0.8-0.5-0.8-1V8.3
	c0-0.1-0.1-0.2-0.2-0.2h-2.1c-0.1,0-0.2,0.1-0.2,0.2v1.9c0,0.5-0.4,0.9-0.8,1c-1.4,0.3-2.6,0.8-3.8,1.6c-0.4,0.3-1,0.2-1.3-0.1
	l-1.3-1.3c-0.1-0.1-0.1-0.1-0.2-0.1c-0.1,0-0.1,0-0.2,0.1l-1.4,1.4c-0.1,0.1-0.1,0.2,0,0.3l1.3,1.3c0.4,0.4,0.4,0.9,0.1,1.3
	c-0.8,1.1-1.3,2.5-1.6,3.8c-0.1,0.5-0.5,0.8-1,0.8h-1.9c-0.1,0-0.2,0.1-0.2,0.2v2.1c0,0.1,0.1,0.2,0.2,0.2h2.1c0.5,0,0.9,0.4,1,0.8
	c0.3,1.4,0.8,2.6,1.6,3.8c0.3,0.4,0.2,1-0.1,1.3l-1.3,1.3c-0.1,0.1-0.1,0.2,0,0.3L34,32c0.1,0.1,0.1,0.1,0.2,0.1
	c0.1,0,0.1,0,0.2-0.1l1.3-1.3c0.2-0.2,0.5-0.3,0.7-0.3c0.2,0,0.4,0.1,0.5,0.2c1.1,0.8,2.5,1.3,3.8,1.6c0.5,0.1,0.8,0.5,0.8,1v1.9
	c0,0.1,0.1,0.2,0.2,0.2h2.1c0.1,0,0.2-0.1,0.2-0.2v-1.9c0-0.5,0.4-0.9,0.8-1c1.4-0.3,2.6-0.8,3.8-1.6c0.4-0.3,1-0.2,1.3,0.1l1.3,1.3
	c0.1,0.1,0.1,0.1,0.2,0.1s0.1,0,0.2-0.1l1.4-1.4c0.1-0.1,0.1-0.1,0.1-0.2s0-0.1-0.1-0.2l-1.3-1.3c-0.4-0.4-0.4-0.9-0.1-1.3
	c0.8-1.1,1.3-2.5,1.6-3.8c0.1-0.5,0.5-0.8,1-0.8h1.9c0.1,0,0.2-0.1,0.2-0.2v-2.1H56.2z"/>
</svg>
