<?xml version="1.0" encoding="utf-8"?>
<!-- Generator: Adobe Illustrator 21.1.0, SVG Export Plug-In . SVG Version: 6.00 Build 0)  -->
<svg version="1.1" id="Layer_1" xmlns="http://www.w3.org/2000/svg" xmlns:xlink="http://www.w3.org/1999/xlink" x="0px" y="0px"
	 viewBox="0 0 64 64.3" style="enable-background:new 0 0 64 64.3;" xml:space="preserve">
<style type="text/css">
	.st0{fill:#06466E;}
</style>
<g transform="translate(0,-952.36218)">
	<path class="st0" d="M32,953.7c-3.8,0-7,3.1-7,7c0,2.1,1,4,2.5,5.3c-3.5,1.8-6,5.7-6,10.1c0,0.8,0.6,1.4,1.4,1.4h18.2
		c0.8,0,1.4-0.6,1.4-1.4c0-4.4-2.4-8.3-6-10.1c1.5-1.3,2.5-3.2,2.5-5.3C39,956.9,35.8,953.7,32,953.7z M32,956.5
		c2.3,0,4.2,1.9,4.2,4.2s-1.9,4.2-4.2,4.2s-4.2-1.9-4.2-4.2S29.7,956.5,32,956.5z M20.1,963.5c-0.2,0-0.4,0.1-0.6,0.2
		c-7.4,3.7-12,12-12,20.9v2.8c0,0.8,0.6,1.4,1.4,1.4c0.8,0,1.4-0.6,1.4-1.4c0,0,0,0,0,0v-2.8c0-7.9,4.1-15.2,10.4-18.3
		c0.7-0.3,1-1.2,0.7-1.9C21.2,963.8,20.7,963.5,20.1,963.5z M43.9,963.5c-0.8,0-1.4,0.6-1.4,1.4c0,0.5,0.3,1,0.8,1.2
		c6.3,3.1,10.4,10.4,10.4,18.3v2.8c0,0.8,0.6,1.4,1.4,1.4c0.8,0,1.4-0.6,1.4-1.4c0,0,0,0,0,0v-2.8c0-8.9-4.6-17.2-12-20.9
		C44.3,963.6,44.1,963.5,43.9,963.5z M32,967.7c3.8,0,6.8,3,7.4,7H24.6C25.2,970.7,28.2,967.7,32,967.7z M11.7,991.5
		c-3.8,0-7,3.1-7,7c0,2.1,1,4,2.5,5.3c-3.5,1.8-6,5.7-6,10.1c0,0.8,0.6,1.4,1.4,1.4h18.2c0.8,0,1.4-0.6,1.4-1.4
		c0-4.4-2.4-8.3-6-10.1c1.5-1.3,2.5-3.2,2.5-5.3C18.7,994.7,15.6,991.5,11.7,991.5L11.7,991.5z M52.3,991.5c-3.8,0-7,3.1-7,7
		c0,2.1,1,4,2.5,5.3c-3.5,1.8-6,5.7-6,10.1c0,0.8,0.6,1.4,1.4,1.4h18.2c0.8,0,1.4-0.6,1.4-1.4c0-4.4-2.4-8.3-6-10.1
		c1.5-1.3,2.5-3.2,2.5-5.3C59.3,994.7,56.1,991.5,52.3,991.5L52.3,991.5z M11.7,994.3c2.3,0,4.2,1.9,4.2,4.2c0,2.3-1.9,4.2-4.2,4.2
		s-4.2-1.9-4.2-4.2C7.5,996.2,9.4,994.3,11.7,994.3z M52.3,994.3c2.3,0,4.2,1.9,4.2,4.2c0,2.3-1.9,4.2-4.2,4.2s-4.2-1.9-4.2-4.2
		C48.1,996.2,50,994.3,52.3,994.3z M41.8,1003.4c-0.2,0-0.5,0.1-0.7,0.3c-2.6,1.6-5.9,2.6-9.1,2.6s-6.5-1-9.1-2.6
		c-0.2-0.2-0.5-0.2-0.8-0.2c-0.8,0-1.4,0.7-1.3,1.5c0,0.5,0.3,0.9,0.7,1.1c3,1.8,6.7,3,10.5,3s7.5-1.2,10.5-3c0.7-0.3,1-1.2,0.6-1.9
		C42.9,1003.6,42.3,1003.3,41.8,1003.4z M11.7,1005.5c3.8,0,6.8,3,7.4,7H4.3C4.9,1008.5,7.9,1005.5,11.7,1005.5z M52.3,1005.5
		c3.8,0,6.8,3,7.4,7H44.9C45.5,1008.5,48.5,1005.5,52.3,1005.5z"/>
</g>
</svg>
